<svg width="25" height="25" viewBox="0 0 25 25" fill="none" xmlns="http://www.w3.org/2000/svg">
<path d="M12.5 0C5.59716 0 0 5.59606 0 12.4995C0 19.4028 5.59661 24.9989 12.5 24.9989C19.4039 24.9989 25 19.4028 25 12.4995C25 5.59606 19.4039 0 12.5 0ZM12.5 3.73748C14.7841 3.73748 16.635 5.58893 16.635 7.87194C16.635 10.1555 14.7841 12.0064 12.5 12.0064C10.217 12.0064 8.36609 10.1555 8.36609 7.87194C8.36609 5.58893 10.217 3.73748 12.5 3.73748ZM12.4973 21.7309C10.2192 21.7309 8.13274 20.9012 6.52343 19.528C6.1314 19.1936 5.90519 18.7033 5.90519 18.1889C5.90519 15.8734 7.77914 14.0204 10.0951 14.0204H14.906C17.2225 14.0204 19.0893 15.8734 19.0893 18.1889C19.0893 18.7039 18.8642 19.1931 18.4716 19.5275C16.8629 20.9012 14.7759 21.7309 12.4973 21.7309Z" fill="#093B32"/>
</svg>
