<svg width="18" height="11" viewBox="0 0 18 11" fill="none" xmlns="http://www.w3.org/2000/svg">
<path d="M0.328716 5.90957L5.9481 10.3818C6.52891 10.832 7.40013 10.4254 7.40013 9.68487L7.40013 8.18927C7.40013 7.7101 7.71958 7.28901 8.19875 7.28901L17.1288 7.289C17.6079 7.289 18 6.94052 18 6.44682L18 4.09452C18 3.62987 17.6079 3.2233 17.1288 3.2233L8.19875 3.2233C7.71958 3.2233 7.40013 2.84563 7.40013 2.3666L7.40013 0.871004C7.40013 0.144986 6.52891 -0.261585 5.96262 0.188547L0.357756 4.54466C-0.106895 4.87863 -0.121415 5.56108 0.328716 5.90957Z" fill="black"/>
</svg>
