<svg width="84" height="91" viewBox="0 0 84 91" fill="none" xmlns="http://www.w3.org/2000/svg">
<path d="M41.7356 41.7353C53.2605 41.7353 62.6032 32.3926 62.6032 20.8677C62.6032 9.34277 53.2605 0 41.7356 0C30.2107 0 20.8679 9.34277 20.8679 20.8677C20.8679 32.3926 30.2107 41.7353 41.7356 41.7353Z" fill="white"/>
<path d="M82.2534 63.4447C58.7772 43.7387 24.6864 43.7387 1.21032 63.4447C0.445177 64.0916 0 65.0376 0 66.0462C0 69.4059 0 77.5304 0 83.4776C0 87.3173 3.11624 90.4266 6.95589 90.4266H76.5148C80.3544 90.4266 83.4706 87.3173 83.4706 83.4776V67.4095C83.4706 65.0376 83.0255 64.0916 82.2534 63.4447Z" fill="white"/>
</svg>
