<svg width="25" height="24" viewBox="0 0 25 24" fill="none" xmlns="http://www.w3.org/2000/svg">
<path d="M20.8008 23.4359H4.19922C2.96074 23.4359 1.95312 22.4284 1.95312 21.1898V9.37244C1.95312 8.94099 2.30288 8.59119 2.73438 8.59119C3.16587 8.59119 3.51563 8.94099 3.51563 9.37244V21.1898C3.51563 21.5668 3.82227 21.8734 4.19922 21.8734H20.8008C21.1778 21.8734 21.4844 21.5668 21.4844 21.1898V9.37244C21.4844 8.94099 21.8342 8.59119 22.2656 8.59119C22.6971 8.59119 23.0469 8.94099 23.0469 9.37244V21.1898C23.0469 22.4283 22.0393 23.4359 20.8008 23.4359Z" fill="black"/>
<path d="M24.2188 12.1065C24.0188 12.1065 23.8189 12.0302 23.6664 11.8776L13.9501 2.16148C13.1505 1.36187 11.8495 1.36187 11.0499 2.16148L1.33368 11.8777C1.0286 12.1828 0.533924 12.1828 0.228845 11.8777C-0.0762818 11.5726 -0.0762818 11.0779 0.228845 10.7729L9.94507 1.05659C11.3539 -0.352198 13.6462 -0.352198 15.0549 1.05659L24.7712 10.7728C25.0763 11.0779 25.0763 11.5726 24.7712 11.8776C24.6187 12.0302 24.4187 12.1065 24.2188 12.1065V12.1065Z" fill="black"/>
<path d="M15.625 23.4358H9.375C8.94351 23.4358 8.59375 23.086 8.59375 22.6546V15.7209C8.59375 14.3748 9.68897 13.2795 11.0352 13.2795H13.9648C15.311 13.2795 16.4063 14.3748 16.4063 15.7209V22.6546C16.4063 23.086 16.0565 23.4358 15.625 23.4358ZM10.1563 21.8733H14.8438V15.7209C14.8438 15.2363 14.4495 14.842 13.9648 14.842H11.0352C10.5505 14.842 10.1563 15.2363 10.1563 15.7209V21.8733Z" fill="black"/>
</svg>
