<svg width="25" height="25" viewBox="0 0 25 25" fill="none" xmlns="http://www.w3.org/2000/svg">
<path d="M23.4813 9.24863L22.0811 8.50185C21.6227 8.25732 21.3379 7.78271 21.3379 7.26318V6.26782C22.8717 5.93154 24.0234 4.56294 24.0234 2.92969V1.46484H24.2676C24.6721 1.46484 25 1.13691 25 0.732422C25 0.32793 24.6721 0 24.2676 0H22.3145C21.91 0 21.582 0.32793 21.582 0.732422C21.582 1.13691 21.91 1.46484 22.3145 1.46484H22.5586V2.92969C22.5586 4.00664 21.6824 4.88281 20.6055 4.88281C19.5285 4.88281 18.6523 4.00664 18.6523 2.92969V1.46484H18.8965C19.301 1.46484 19.6289 1.13691 19.6289 0.732422C19.6289 0.32793 19.301 0 18.8965 0H16.9434C16.5389 0 16.2109 0.32793 16.2109 0.732422C16.2109 1.13691 16.5389 1.46484 16.9434 1.46484H17.1875V2.92969C17.1875 4.56294 18.3393 5.93149 19.873 6.26782V7.26318C19.873 8.32485 20.455 9.29473 21.3917 9.79434L22.7919 10.5411C23.2504 10.7856 23.5352 11.2603 23.5352 11.7798C23.5352 12.5539 22.9054 13.1836 22.1313 13.1836H21.4561C21.1537 12.3311 20.3396 11.7188 19.3848 11.7188C18.1732 11.7188 17.1875 12.7044 17.1875 13.916C17.1875 15.1276 18.1732 16.1133 19.3848 16.1133C20.3396 16.1133 21.1537 15.5009 21.4561 14.6484H22.1313C23.7131 14.6484 25 13.3616 25 11.7798C25 10.7181 24.4181 9.74824 23.4813 9.24863ZM19.3848 14.6484C18.9809 14.6484 18.6523 14.3199 18.6523 13.916C18.6523 13.5122 18.9809 13.1836 19.3848 13.1836C19.7886 13.1836 20.1172 13.5122 20.1172 13.916C20.1172 14.3199 19.7886 14.6484 19.3848 14.6484Z" fill="white"/>
<path d="M16.256 16.2263L12.9395 15.3114V14.31C14.5491 13.3216 15.625 11.5449 15.625 9.52148V4.15039C15.625 2.40034 14.2012 0.976562 12.4512 0.976562H11.7611C11.0249 0.344678 10.0974 0 9.11699 0H6.5918C4.30327 0 2.44141 1.86187 2.44141 4.15039C2.44141 5.3773 3.26855 6.4148 4.39453 6.73442V9.52148C4.39453 11.5449 5.47046 13.3216 7.08008 14.31V15.3114L3.76357 16.2263C1.54761 16.8376 0 18.87 0 21.1687V24.2676C0 24.6721 0.32793 25 0.732422 25H19.2871C19.6916 25 20.0195 24.6721 20.0195 24.2676V21.1687C20.0195 18.87 18.4719 16.8376 16.256 16.2263ZM3.90625 4.15039C3.90625 2.66958 5.11099 1.46484 6.5918 1.46484H9.11699C9.81196 1.46484 10.4653 1.73545 10.9567 2.22686C11.0941 2.36421 11.2804 2.44141 11.4746 2.44141H12.4512C13.3935 2.44141 14.1602 3.20806 14.1602 4.15039V5.35493C13.1567 5.27104 12.2244 4.84092 11.5042 4.12075C11.2666 3.88311 10.8977 3.83774 10.6095 4.0106C9.12612 4.90063 7.42769 5.37109 5.69775 5.37109H5.12695C5.1269 5.37109 5.1269 5.37109 5.12686 5.37109C4.45381 5.37105 3.90625 4.82344 3.90625 4.15039ZM5.85938 9.52148V6.83345C7.61611 6.80762 9.34048 6.36274 10.887 5.53657C11.817 6.30195 12.9529 6.74854 14.1602 6.82344V9.52148C14.1602 11.81 12.2983 13.6719 10.0098 13.6719C7.72124 13.6719 5.85938 11.81 5.85938 9.52148ZM10.0098 15.1367C10.5164 15.1367 11.0074 15.0689 11.4746 14.9425V16.6016C11.4746 17.4093 10.8175 18.0664 10.0098 18.0664C9.20205 18.0664 8.54492 17.4093 8.54492 16.6016V14.9425C9.01211 15.0689 9.50313 15.1367 10.0098 15.1367ZM18.5547 23.5352H16.6016V21.7285C16.6016 21.324 16.2736 20.9961 15.8691 20.9961C15.4646 20.9961 15.1367 21.324 15.1367 21.7285V23.5352H4.88281V21.7285C4.88281 21.324 4.55488 20.9961 4.15039 20.9961C3.7459 20.9961 3.41797 21.324 3.41797 21.7285V23.5352H1.46484V21.1687C1.46484 19.5268 2.57031 18.075 4.15308 17.6384L7.0897 16.8283C7.20596 18.3381 8.4707 19.5312 10.0098 19.5312C11.5488 19.5312 12.8136 18.3381 12.9298 16.8283L15.8665 17.6384C17.4492 18.075 18.5547 19.5268 18.5547 21.1687V23.5352Z" fill="white"/>
</svg>
