<svg width="25" height="23" viewBox="0 0 25 23" fill="none" xmlns="http://www.w3.org/2000/svg">
<path d="M20.2678 11.3177C22.83 9.01427 23.0398 5.06994 20.7364 2.50773C18.6238 0.157773 15.0878 -0.241447 12.5044 1.5784C9.68828 -0.409066 5.79422 0.262718 3.80676 3.07881C1.98309 5.66283 2.38069 9.20255 4.73217 11.3176C1.8104 12.8578 -0.0131643 15.8942 7.15668e-05 19.197V21.8756C7.15668e-05 22.3687 0.399814 22.7684 0.892941 22.7684H24.1071C24.6002 22.7684 24.9999 22.3687 24.9999 21.8756V19.197C25.0131 15.8942 23.1896 12.8578 20.2678 11.3177ZM16.0713 2.23287C18.5334 2.23015 20.5316 4.22384 20.5343 6.68591C20.5363 8.44183 19.5073 10.0353 17.9062 10.756C17.8374 10.7872 17.7687 10.8158 17.699 10.8453C17.4787 10.9342 17.2514 11.0049 17.0196 11.0569C16.9749 11.0668 16.9303 11.0721 16.8847 11.081C16.6257 11.1307 16.3628 11.1573 16.099 11.1605C15.9803 11.1605 15.8606 11.1516 15.7419 11.1409C15.6972 11.1409 15.6526 11.1409 15.6079 11.1319C15.1005 11.0722 14.6068 10.9267 14.1481 10.7016C14.1312 10.6935 14.1115 10.6944 14.0946 10.6873C14.0052 10.6445 13.916 10.607 13.8365 10.5587C13.8437 10.5498 13.8481 10.54 13.8553 10.5311C14.2647 10.005 14.5875 9.41694 14.8115 8.7891L14.8392 8.71408C14.941 8.41421 15.0201 8.10712 15.0758 7.79532C15.0838 7.7498 15.0901 7.70601 15.0972 7.65694C15.1489 7.33954 15.176 7.01869 15.1785 6.69711C15.1759 6.37615 15.1488 6.05588 15.0972 5.73905C15.0901 5.69265 15.0838 5.64975 15.0758 5.60068C15.0201 5.28893 14.941 4.98179 14.8392 4.68191L14.8115 4.60689C14.5875 3.97906 14.2646 3.39103 13.8553 2.86494C13.8481 2.856 13.8436 2.84621 13.8365 2.83727C14.5149 2.44155 15.286 2.23292 16.0713 2.23287ZM4.46431 6.69716C4.45798 4.23802 6.44634 2.23935 8.90548 2.23302C10.0582 2.23004 11.1672 2.67425 11.9991 3.47217C12.0509 3.52218 12.1018 3.57214 12.1518 3.62394C12.3051 3.7846 12.4465 3.95619 12.575 4.13731C12.6143 4.19266 12.65 4.25162 12.6866 4.30875C12.8114 4.5008 12.9209 4.70232 13.0142 4.91142C13.0366 4.96233 13.0535 5.01412 13.0731 5.06497C13.1673 5.29626 13.2413 5.53523 13.2946 5.77923C13.3009 5.80602 13.3027 5.8328 13.308 5.86048C13.4211 6.41487 13.4211 6.98641 13.308 7.5408C13.3027 7.56848 13.3008 7.59526 13.2946 7.62205C13.2414 7.86605 13.1673 8.10502 13.0731 8.33631C13.0535 8.38721 13.0365 8.43901 13.0142 8.48986C12.9208 8.69865 12.8113 8.89985 12.6866 9.09164C12.65 9.14877 12.6143 9.20773 12.575 9.26308C12.4466 9.44425 12.3051 9.61579 12.1518 9.77645C12.1017 9.82824 12.0508 9.87826 11.9991 9.92822C11.6376 10.2727 11.2208 10.554 10.7661 10.7603C10.6938 10.7934 10.6205 10.8238 10.5465 10.8497C10.3312 10.9351 10.1098 11.0037 9.88399 11.055C9.82775 11.0675 9.76968 11.0746 9.71255 11.0844C9.47012 11.1296 9.22429 11.1543 8.97773 11.1586H8.87953C8.63297 11.1544 8.38714 11.1296 8.14471 11.0844C8.08758 11.0746 8.02951 11.0675 7.97327 11.055C7.74748 11.0037 7.52597 10.9351 7.3108 10.8497C7.23667 10.8202 7.16348 10.7899 7.09118 10.7603C5.49378 10.0391 4.46635 8.44978 4.46431 6.69716ZM16.0713 20.9827H1.78576V19.1971C1.77268 16.1715 3.67895 13.4702 6.53391 12.4686C8.06655 13.1066 9.7905 13.1066 11.3232 12.4686C11.6213 12.5775 11.9118 12.706 12.1928 12.8534C12.3786 12.9489 12.55 13.0578 12.7285 13.1676C12.8446 13.2399 12.9624 13.3105 13.0741 13.39C13.2464 13.5123 13.4089 13.6453 13.5687 13.7819C13.6714 13.8712 13.7732 13.9605 13.8696 14.0498C14.0169 14.1891 14.1553 14.3364 14.2883 14.4873C14.3839 14.5962 14.4767 14.7069 14.5651 14.8212C14.6821 14.9712 14.7937 15.1248 14.8973 15.2828C14.9866 15.4167 15.066 15.556 15.1446 15.6953C15.2339 15.8489 15.316 16.0025 15.391 16.1623C15.466 16.3221 15.5321 16.4971 15.5963 16.6677C15.6526 16.8159 15.7124 16.9632 15.7588 17.1141C15.8213 17.3212 15.8651 17.5355 15.9088 17.7498C15.9356 17.8765 15.9704 18.0007 15.99 18.1292C16.0429 18.4827 16.0701 18.8396 16.0713 19.1971V20.9827H16.0713ZM23.2142 20.9827H17.8571V19.1971C17.8571 18.9176 17.841 18.6408 17.816 18.3667C17.8088 18.2864 17.7964 18.2069 17.7875 18.1265C17.7633 17.9292 17.7357 17.7337 17.6981 17.5399C17.6821 17.4572 17.6651 17.3741 17.6472 17.2908C17.6044 17.092 17.5547 16.895 17.4981 16.6997C17.4794 16.6354 17.4624 16.5703 17.4428 16.5069C17.1928 15.7077 16.8305 14.948 16.3669 14.2507L16.3321 14.1998C16.1785 13.9718 16.0145 13.7513 15.8401 13.5382L15.8339 13.5301C15.6553 13.3087 15.4616 13.0935 15.258 12.89C15.2696 12.89 15.2821 12.89 15.2946 12.89C15.5466 12.9231 15.8003 12.941 16.0544 12.9435H16.1036C16.3388 12.9415 16.5736 12.9263 16.8072 12.898C16.8804 12.8891 16.9527 12.8757 17.0259 12.8641C17.2158 12.8349 17.4033 12.7971 17.5884 12.7507C17.6411 12.7373 17.6946 12.7248 17.7482 12.7096C17.9911 12.6436 18.2297 12.5624 18.4625 12.4668C21.3195 13.4674 23.2275 16.1699 23.2142 19.1971V20.9827H23.2142Z" fill="white"/>
</svg>
