<svg width="21" height="21" viewBox="0 0 21 21" fill="none" xmlns="http://www.w3.org/2000/svg">
<path d="M15.3124 21C12.1765 21 9.625 18.4485 9.625 15.3124C9.625 12.1765 12.1765 9.62505 15.3124 9.62505C18.4485 9.62505 20.9999 12.1765 20.9999 15.3124C20.9999 18.4485 18.4485 21 15.3124 21V21ZM15.3124 10.9375C12.9 10.9375 10.9375 12.9 10.9375 15.3124C10.9375 17.7248 12.9 19.6875 15.3124 19.6875C17.7248 19.6875 19.6874 17.7248 19.6874 15.3124C19.6874 12.9 17.7248 10.9375 15.3124 10.9375V10.9375Z" fill="white"/>
<path d="M15.3125 18.375C14.9502 18.375 14.6562 18.081 14.6562 17.7187V12.9063C14.6562 12.544 14.9502 12.25 15.3125 12.25C15.6748 12.25 15.9688 12.544 15.9688 12.9063V17.7187C15.9688 18.081 15.6748 18.375 15.3125 18.375Z" fill="white"/>
<path d="M17.7187 15.9687H12.9062C12.544 15.9687 12.25 15.6747 12.25 15.3125C12.25 14.9502 12.544 14.6562 12.9062 14.6562H17.7187C18.0809 14.6562 18.3749 14.9502 18.3749 15.3125C18.3749 15.6747 18.0809 15.9687 17.7187 15.9687Z" fill="white"/>
<path d="M8.08504 17.5001H2.4063C1.0789 17.5001 0 16.4212 0 15.0938V2.4063C0 1.0789 1.0789 0 2.4063 0H11.5938C12.9212 0 13.9999 1.0789 13.9999 2.4063V8.08504C13.9999 8.4473 13.7059 8.74129 13.3437 8.74129C12.9814 8.74129 12.6874 8.4473 12.6874 8.08504V2.4063C12.6874 1.80341 12.1967 1.3125 11.5938 1.3125H2.4063C1.80341 1.3125 1.3125 1.80341 1.3125 2.4063V15.0938C1.3125 15.6966 1.80341 16.1876 2.4063 16.1876H8.08504C8.4473 16.1876 8.74129 16.4816 8.74129 16.8438C8.74129 17.2061 8.4473 17.5001 8.08504 17.5001V17.5001Z" fill="white"/>
<path d="M4.37505 7.87499C3.4099 7.87499 2.625 7.09009 2.625 6.12494C2.625 5.15979 3.4099 4.37505 4.37505 4.37505C5.3402 4.37505 6.12495 5.15979 6.12495 6.12494C6.12495 7.09009 5.3402 7.87499 4.37505 7.87499ZM4.37505 5.68755C4.13441 5.68755 3.9375 5.88349 3.9375 6.12494C3.9375 6.36655 4.13441 6.56249 4.37505 6.56249C4.6157 6.56249 4.81245 6.36655 4.81245 6.12494C4.81245 5.88349 4.6157 5.68755 4.37505 5.68755Z" fill="white"/>
<path d="M0.656212 13.5626C0.488144 13.5626 0.320236 13.4986 0.192383 13.37C-0.0639648 13.1136 -0.0639648 12.698 0.192383 12.4417L1.97752 10.6567C2.55495 10.0791 3.56992 10.0783 4.14751 10.6567L5.24996 11.7591L9.41497 7.59414C9.99239 7.01656 11.0075 7.01576 11.585 7.59414L12.0574 8.06662C12.3138 8.32297 12.3138 8.73857 12.0574 8.99508C11.8011 9.25143 11.3855 9.25143 11.1291 8.99508L10.6567 8.52244C10.5455 8.41141 10.4537 8.41221 10.3425 8.52244L5.71379 13.1513C5.45728 13.4076 5.04168 13.4076 4.78533 13.1513L3.21905 11.585C3.10802 11.4738 3.01605 11.4738 2.90502 11.585L1.12004 13.37C0.992187 13.4986 0.82428 13.5626 0.656212 13.5626V13.5626Z" fill="white"/>
</svg>
