<svg width="25" height="25" viewBox="0 0 25 25" fill="none" xmlns="http://www.w3.org/2000/svg">
<path d="M24.714 22.0391L17.1569 14.482C16.9737 14.2988 16.7254 14.196 16.4664 14.196C16.2294 14.196 16.002 14.2829 15.8246 14.4378L14.7583 13.3716C17.3058 10.149 17.1204 5.42857 14.1083 2.41641C14.1083 2.41641 14.1083 2.41641 14.1082 2.41641C10.8864 -0.80542 5.64406 -0.805518 2.42208 2.41641C-0.807117 5.64566 -0.807605 10.8728 2.42208 14.1025C5.39152 17.0719 10.1148 17.3238 13.3767 14.752L14.4437 15.8189C14.1081 16.2025 14.1221 16.7855 14.4878 17.1511L22.0449 24.7083C22.426 25.0894 23.0446 25.0895 23.4259 24.7083L24.0698 24.0643C24.0699 24.0643 24.0699 24.0642 24.0699 24.0642C24.0699 24.0642 24.07 24.0641 24.07 24.0641L24.714 23.4201C25.0953 23.0387 25.0953 22.4205 24.714 22.0391ZM12.7273 12.7215C10.2612 15.1876 6.26955 15.1878 3.80314 12.7215C1.33712 10.2556 1.33668 6.26372 3.80314 3.79732C6.26344 1.33701 10.2668 1.33687 12.7273 3.79732C15.1933 6.26328 15.1938 10.2551 12.7273 12.7215Z" fill="#BAB9B9"/>
</svg>
