<svg width="25" height="23" viewBox="0 0 25 23" fill="none" xmlns="http://www.w3.org/2000/svg">
<path d="M0.732481 19.8114H4.39458V22.0086C4.39458 22.4131 4.72251 22.741 5.127 22.741H24.2676C24.6721 22.741 25 22.4131 25 22.0086V2.96569C25 2.5612 24.6721 2.23327 24.2676 2.23327H20.6055V1.50085C20.6055 1.09636 20.2776 0.768433 19.8731 0.768433C19.4686 0.768433 19.1406 1.09636 19.1406 1.50085V2.23327H15.4297V1.50085C15.4297 1.09636 15.1018 0.768433 14.6973 0.768433C14.2928 0.768433 13.9649 1.09636 13.9649 1.50085V2.23327H10.3028V1.50085C10.3028 1.09636 9.97484 0.768433 9.57035 0.768433C9.16586 0.768433 8.83793 1.09636 8.83793 1.50085V2.23327H5.127C4.72251 2.23327 4.39458 2.5612 4.39458 2.96569V7.36021C4.39458 12.7582 2.15118 16.9108 0.263586 18.5163C0.0266723 18.7137 -0.0611692 19.0383 0.0437622 19.3283C0.148791 19.6182 0.424084 19.8114 0.732481 19.8114V19.8114ZM23.5352 21.2762H5.85942V19.8114H19.8731C20.0444 19.8114 20.2103 19.7513 20.342 19.6416C21.2224 18.9082 22.5862 17.1622 23.5352 14.926V21.2762ZM5.85942 3.69811H8.83793V4.43053C8.83793 4.83502 9.16586 5.16295 9.57035 5.16295C9.97484 5.16295 10.3028 4.83502 10.3028 4.43053V3.69811H13.9649V4.43053C13.9649 4.83502 14.2928 5.16295 14.6973 5.16295C15.1018 5.16295 15.4297 4.83502 15.4297 4.43053V3.69811H19.1406V4.43053C19.1406 4.83502 19.4686 5.16295 19.8731 5.16295C20.2776 5.16295 20.6055 4.83502 20.6055 4.43053V3.69811H23.5352V6.62779H5.85942V3.69811ZM5.84687 8.09215H23.5222C23.3571 12.7384 21.5739 16.394 19.5859 18.3465H2.39844C4.65103 15.4764 5.72602 11.7392 5.84687 8.09215V8.09215Z" fill="white"/>
</svg>
